# xmcd
#
# Track frame offsets: 
#        150
#        18357
#        40027
#        53665
#        78537
#        98412
#        117520
#        138922
#        159880
#        178400
#        190800
#        210192
#        235600
#        253337
#        266342
#        290055
#        308957
#        328697
#
# Disc length: 4717 seconds
#
# Revision: 5
# Processed by: cddbd v1.5.2PL0 Copyright (c) Steve Scherf et al.
# Submitted via: ExactAudioCopyFreeDBPlugin 1.0
#
DISCID=f2126b12
DTITLE=Various Artist - Playboy Presents Soul Affairs
DYEAR=1997
DGENRE=Soul
TTITLE0=Marvin Gaye - Sexual Healing
TTITLE1=Aretha Franklin - Night Time is the Right Time
TTITLE2=Ben E. King - Stand By Me
TTITLE3=Tina Turner - In Your Wildest Dreams
TTITLE4=Bobby Womack - Wanna Make Love to You
TTITLE5=Earth, Wind and Fire - After the Love Has Gone
TTITLE6=R. Kelly - I Belive I Can Fly
TTITLE7=The Staple Singers - Respect Yourself
TTITLE8=En Vogue - Don't Let Go
TTITLE9=Otis Redding - The Dock of the Bay
TTITLE10=Jody Watley - Everything
TTITLE11=Al Jarreau - Your Song
TTITLE12=Natalie Cole - Miss You Like Crazy
TTITLE13=Percy Sledge - When a Man Loves a Woman
TTITLE14=Gladys Knight - Licence To Kill
TTITLE15=Bill Withers - Aint No Sunshine
TTITLE16=Randy Crawford - Rainy Night in Georgia
TTITLE17=Nina Simone - My Baby Just Cares for Me
EXTD=
EXTT0=
EXTT1=
EXTT2=
EXTT3=
EXTT4=
EXTT5=
EXTT6=
EXTT7=
EXTT8=
EXTT9=
EXTT10=
EXTT11=
EXTT12=
EXTT13=
EXTT14=
EXTT15=
EXTT16=
EXTT17=
PLAYORDER=
